<svg version="1.1" id="Layer_1" xmlns:x="ns_extend;" xmlns:i="ns_ai;" xmlns:graph="ns_graphs;"
	xmlns="http://www.w3.org/2000/svg" xmlns:xlink="http://www.w3.org/1999/xlink" x="0px" y="0px" viewBox="0 0 181.1 50"
	style="enable-background:new 0 0 181.1 50;" xml:space="preserve">
	<g>
		<path class="st0"
			d="M58.9,22.1V34h-5.2V23.5c0-0.7-0.2-1.2-0.5-1.8c-0.3-0.5-0.8-1-1.3-1.3c-0.5-0.3-1.2-0.5-1.8-0.5
		c-0.7,0-1.3,0.2-1.8,0.5c-0.5,0.3-1,0.7-1.3,1.3c-0.3,0.5-0.5,1.1-0.5,1.8V34h-5.2l0-28h5.2l0,10.7c0.6-0.6,1.4-1.1,2.2-1.4
		c0.9-0.3,1.8-0.5,2.7-0.5c1.4,0,2.6,0.3,3.7,1c1.1,0.6,2,1.6,2.7,2.7C58.6,19.5,58.9,20.8,58.9,22.1L58.9,22.1z M74.4,15.3H80
		l-10.4,28h-5.6l3.4-9.3l-6.8-18.7h5.7L70.1,27L74.4,15.3z M95.7,15.3h5.2v18.9c0,1.4-0.3,2.6-0.8,3.7c-0.6,1.1-1.4,2.1-2.3,2.9
		c-1,0.8-2.1,1.4-3.4,1.8c-1.3,0.4-2.7,0.6-4,0.6c-1.3,0-2.6-0.3-3.9-0.8c-1.2-0.5-2.3-1.2-3.3-2.1c-1-0.9-1.7-2-2.2-3.1l4.8-2.2
		c0.3,0.6,0.6,1.2,1.1,1.6c0.5,0.4,1,0.8,1.6,1c0.6,0.2,1.2,0.4,1.9,0.4c0.7,0,1.3-0.1,2-0.2c0.6-0.2,1.2-0.4,1.7-0.7
		c0.5-0.3,0.9-0.7,1.2-1.2c0.3-0.5,0.4-1,0.4-1.7v-2.2c-0.6,0.7-1.3,1.3-2.1,1.7c-0.8,0.4-1.8,0.6-2.9,0.6c-1.4,0-2.7-0.3-3.9-0.8
		c-1.2-0.5-2.2-1.2-3.2-2.1c-0.9-0.9-1.6-1.9-2.1-3.1c-0.5-1.2-0.8-2.4-0.8-3.8c0-1.4,0.3-2.6,0.8-3.8c0.5-1.2,1.2-2.2,2.1-3.1
		c0.9-0.9,2-1.6,3.2-2.1c1.2-0.5,2.5-0.8,3.9-0.8c1.1,0,2,0.2,2.9,0.7c0.8,0.4,1.5,1,2.1,1.7V15.3z M90.8,29.5
		c0.9,0,1.6-0.2,2.3-0.7c0.7-0.4,1.2-1.1,1.6-1.8c0.4-0.7,0.6-1.6,0.6-2.4c0-0.9-0.2-1.7-0.6-2.4c-0.4-0.7-0.9-1.3-1.6-1.8
		c-0.7-0.4-1.5-0.7-2.3-0.7c-0.8,0-1.6,0.2-2.3,0.7c-0.7,0.4-1.3,1.1-1.7,1.8c-0.4,0.7-0.6,1.6-0.6,2.4c0,0.9,0.2,1.7,0.6,2.5
		c0.4,0.7,1,1.3,1.7,1.8C89.1,29.3,90,29.5,90.8,29.5L90.8,29.5z M105,34l0-18.7h5.2l0,1.4c0.6-0.6,1.4-1.1,2.2-1.4
		c0.9-0.3,1.8-0.5,2.7-0.5c0.7,0,1.4,0.1,2.1,0.3l-2.1,5.2c-0.4-0.2-0.9-0.3-1.4-0.3c-0.7,0-1.3,0.2-1.8,0.5c-0.5,0.3-1,0.7-1.3,1.3
		c-0.3,0.5-0.5,1.1-0.5,1.8V34H105z M131.9,15.3h5.2V34h-5.3l-0.2-1.9c-0.5,0.7-1.1,1.3-1.9,1.8c-0.8,0.4-1.7,0.7-2.7,0.7
		c-1.4,0-2.7-0.3-4-0.8c-1.2-0.5-2.3-1.2-3.2-2.2c-0.9-0.9-1.7-2-2.2-3.2c-0.5-1.2-0.8-2.5-0.8-3.9c0-1.3,0.2-2.6,0.7-3.7
		c0.5-1.1,1.2-2.2,2.1-3.1c0.9-0.9,1.9-1.6,3.1-2.1c1.2-0.5,2.4-0.7,3.8-0.7c1.2,0,2.2,0.2,3.1,0.7c0.9,0.5,1.7,1.1,2.4,1.9
		L131.9,15.3z M126.9,29.5c0.9,0,1.6-0.2,2.3-0.7c0.7-0.4,1.3-1,1.6-1.8c0.4-0.8,0.6-1.6,0.6-2.5c0-0.9-0.2-1.7-0.6-2.5
		c-0.4-0.7-1-1.3-1.6-1.8c-0.7-0.4-1.5-0.7-2.3-0.7c-0.9,0-1.7,0.2-2.4,0.7c-0.7,0.4-1.3,1-1.7,1.8c-0.4,0.7-0.6,1.6-0.6,2.4
		c0,0.9,0.2,1.7,0.6,2.5c0.4,0.7,1,1.3,1.7,1.8C125.2,29.3,126,29.5,126.9,29.5L126.9,29.5z M146.4,43.3h-5.2v-28h5.2v2
		c0.6-0.7,1.3-1.3,2.2-1.8c0.8-0.5,1.8-0.7,2.9-0.7c1.4,0,2.7,0.3,3.9,0.8c1.2,0.5,2.3,1.2,3.2,2.1c0.9,0.9,1.6,2,2.2,3.1
		c0.5,1.2,0.8,2.4,0.8,3.8c0,1.4-0.3,2.6-0.8,3.8c-0.5,1.2-1.2,2.2-2.2,3.2c-0.9,0.9-2,1.6-3.2,2.1c-1.2,0.5-2.5,0.8-3.9,0.8
		c-1.1,0-2.1-0.2-2.9-0.7c-0.8-0.5-1.6-1.1-2.2-1.8V43.3z M151.4,19.8c-0.9,0-1.6,0.2-2.3,0.7c-0.7,0.4-1.2,1-1.6,1.8
		c-0.4,0.7-0.6,1.6-0.6,2.4c0,0.9,0.2,1.7,0.6,2.5c0.4,0.7,0.9,1.3,1.6,1.8c0.7,0.4,1.5,0.7,2.3,0.7c0.9,0,1.6-0.2,2.4-0.7
		c0.7-0.4,1.3-1,1.7-1.8c0.4-0.7,0.6-1.6,0.6-2.5c0-0.9-0.2-1.7-0.6-2.4c-0.4-0.7-1-1.3-1.7-1.8C153,20,152.2,19.8,151.4,19.8
		L151.4,19.8z M181.1,22.1V34h-5.2V23.5c0-0.7-0.2-1.2-0.5-1.8c-0.3-0.5-0.8-1-1.3-1.3c-0.6-0.3-1.2-0.5-1.8-0.5
		c-0.7,0-1.3,0.2-1.8,0.5c-0.5,0.3-1,0.7-1.3,1.3c-0.3,0.5-0.5,1.1-0.5,1.8V34h-5.2l0-28h5.2l0,10.7c0.6-0.6,1.4-1.1,2.2-1.4
		c0.9-0.3,1.8-0.5,2.7-0.5c1.4,0,2.6,0.3,3.8,1c1.1,0.6,2,1.6,2.7,2.7C180.8,19.5,181.1,20.8,181.1,22.1L181.1,22.1z M181.1,22.1">
		</path>
		<path class="st0" d="M23.6,6.7L17.7,10l-5.9,3.3l-5.9,3.3v20l5.9-3.3l5.9-3.3v-6.7l-5.9,3.3V20l5.9-3.3l5.9-3.3v20l-5.9,3.3
		L11.8,40l-5.9,3.3L0,46.7L5.9,50l5.9-3.3l5.9-3.3l5.9-3.3l5.9-3.3V3.3L23.6,0V6.7z M23.6,6.7">
		</path>
	</g>
</svg>
