<?xml version="1.0" encoding="utf-8"?>
<!-- Generator: Adobe Illustrator 16.0.0, SVG Export Plug-In . SVG Version: 6.00 Build 0)  -->
<!DOCTYPE svg PUBLIC "-//W3C//DTD SVG 1.1//EN" "http://www.w3.org/Graphics/SVG/1.1/DTD/svg11.dtd" [
	<!ENTITY ns_extend "http://ns.adobe.com/Extensibility/1.0/">
	<!ENTITY ns_ai "http://ns.adobe.com/AdobeIllustrator/10.0/">
	<!ENTITY ns_graphs "http://ns.adobe.com/Graphs/1.0/">
	<!ENTITY ns_vars "http://ns.adobe.com/Variables/1.0/">
	<!ENTITY ns_imrep "http://ns.adobe.com/ImageReplacement/1.0/">
	<!ENTITY ns_sfw "http://ns.adobe.com/SaveForWeb/1.0/">
	<!ENTITY ns_custom "http://ns.adobe.com/GenericCustomNamespace/1.0/">
	<!ENTITY ns_adobe_xpath "http://ns.adobe.com/XPath/1.0/">
]>
<svg version="1.1" id="Layer_1" xmlns:x="&ns_extend;" xmlns:i="&ns_ai;" xmlns:graph="&ns_graphs;"
	 xmlns="http://www.w3.org/2000/svg" xmlns:xlink="http://www.w3.org/1999/xlink" x="0px" y="0px" width="87.182px"
	 height="22.976px" viewBox="0 0 87.182 22.976" enable-background="new 0 0 87.182 22.976" xml:space="preserve">
<metadata>
	<sfw  xmlns="&ns_sfw;">
		<slices></slices>
		<sliceSourceBounds  height="22.976" y="395.149" x="223.443" width="87.182" bottomLeftOrigin="true"></sliceSourceBounds>
	</sfw>
</metadata>
<path fill="#FFFFFF" d="M26.931,16.825c-0.591-0.25-1.047-0.603-1.366-1.063c-0.32-0.457-0.478-0.994-0.478-1.608v-0.451
	c0-0.103,0.052-0.157,0.157-0.157h1.146c0.105,0,0.156,0.054,0.156,0.157v0.375c0,0.531,0.231,0.967,0.691,1.311
	s1.094,0.516,1.9,0.516c0.722,0,1.266-0.151,1.632-0.453c0.366-0.302,0.55-0.698,0.55-1.186c0-0.322-0.094-0.599-0.283-0.828
	c-0.188-0.228-0.463-0.439-0.823-0.632c-0.362-0.192-0.888-0.423-1.579-0.695c-0.764-0.292-1.37-0.556-1.813-0.796
	c-0.445-0.239-0.815-0.554-1.106-0.944c-0.293-0.391-0.44-0.882-0.44-1.475c0-0.896,0.322-1.598,0.965-2.108
	c0.644-0.509,1.517-0.766,2.615-0.766c0.775,0,1.454,0.131,2.042,0.391c0.586,0.26,1.038,0.625,1.359,1.093
	c0.318,0.468,0.479,1.01,0.479,1.623v0.313c0,0.104-0.053,0.155-0.157,0.155h-1.178c-0.105,0-0.157-0.052-0.157-0.155V9.208
	c0-0.54-0.217-0.991-0.652-1.35c-0.435-0.359-1.033-0.539-1.797-0.539c-0.651,0-1.151,0.133-1.508,0.397
	c-0.356,0.266-0.534,0.648-0.534,1.147c0,0.343,0.088,0.625,0.267,0.843c0.178,0.219,0.443,0.414,0.793,0.586
	c0.349,0.172,0.886,0.394,1.608,0.663c0.745,0.292,1.346,0.561,1.806,0.805c0.459,0.244,0.843,0.567,1.146,0.968
	c0.303,0.4,0.454,0.897,0.454,1.491c0,0.917-0.336,1.641-1.012,2.178c-0.676,0.536-1.603,0.805-2.787,0.805
	C28.22,17.202,27.522,17.077,26.931,16.825L26.931,16.825z"/>
<path fill="#FFFFFF" d="M43.632,6.304v0.999c0,0.105-0.053,0.155-0.157,0.155H40.46c-0.042,0-0.062,0.022-0.062,0.062v9.397
	c0,0.104-0.052,0.155-0.157,0.155h-1.193c-0.104,0-0.156-0.053-0.156-0.155V7.521c0-0.042-0.022-0.062-0.063-0.062h-2.874
	c-0.105,0-0.157-0.051-0.157-0.155v-1c0-0.104,0.052-0.156,0.157-0.156h7.521C43.58,6.148,43.632,6.2,43.632,6.304z"/>
<path fill="#FFFFFF" d="M52.747,16.966l-2.198-4.667c-0.011-0.031-0.032-0.047-0.062-0.047h-2.262c-0.042,0-0.062,0.021-0.062,0.063
	v4.605c0,0.103-0.053,0.155-0.157,0.155h-1.195c-0.105,0-0.157-0.052-0.157-0.155V6.304c0-0.104,0.052-0.156,0.157-0.156h4.224
	c0.628,0,1.179,0.13,1.656,0.39c0.477,0.26,0.847,0.625,1.108,1.093c0.261,0.468,0.391,1.011,0.391,1.622
	c0,0.729-0.191,1.346-0.572,1.85c-0.383,0.505-0.913,0.845-1.594,1.023c-0.041,0.022-0.053,0.048-0.031,0.079l2.277,4.683
	c0.01,0.021,0.015,0.047,0.015,0.079c0,0.074-0.042,0.109-0.125,0.109h-1.241C52.837,17.077,52.779,17.04,52.747,16.966
	L52.747,16.966z M48.162,7.506v3.497c0,0.042,0.021,0.062,0.062,0.062h2.624c0.554,0,0.999-0.164,1.335-0.493
	c0.335-0.327,0.502-0.762,0.502-1.302c0-0.54-0.167-0.994-0.502-1.327c-0.335-0.333-0.779-0.5-1.335-0.5h-2.624
	C48.182,7.443,48.162,7.464,48.162,7.506z"/>
<path fill="#FFFFFF" d="M60.459,16.903v-4.386c0-0.042-0.005-0.067-0.015-0.079l-3.266-6.104c-0.01-0.022-0.016-0.046-0.016-0.078
	c0-0.073,0.042-0.108,0.125-0.108h1.289c0.093,0,0.156,0.036,0.188,0.108l2.402,4.574c0.01,0.021,0.025,0.03,0.048,0.03
	c0.021,0,0.035-0.01,0.047-0.03l2.402-4.574c0.031-0.073,0.094-0.108,0.189-0.108h1.303c0.053,0,0.089,0.017,0.119,0.054
	c0.025,0.036,0.022,0.081-0.009,0.133l-3.283,6.104c-0.01,0.01-0.017,0.036-0.017,0.079v4.387c0,0.103-0.052,0.155-0.157,0.155
	h-1.193C60.513,17.059,60.461,17.007,60.459,16.903L60.459,16.903z"/>
<path fill="#FFFFFF" d="M68.214,6.304c0-0.104,0.053-0.156,0.156-0.156h3.8c1.089,0,1.959,0.284,2.607,0.851
	c0.646,0.567,0.973,1.324,0.973,2.271v4.684c0,0.946-0.325,1.705-0.973,2.271c-0.649,0.567-1.519,0.851-2.607,0.851h-3.8
	c-0.104,0-0.156-0.053-0.156-0.156V6.304z M69.785,15.778h2.451c0.606,0,1.091-0.184,1.451-0.554c0.36-0.37,0.547-0.866,0.558-1.491
	V9.487c0-0.625-0.179-1.121-0.541-1.491c-0.362-0.369-0.851-0.554-1.468-0.554h-2.451c-0.042,0-0.063,0.021-0.063,0.062v8.21
	C69.722,15.758,69.743,15.78,69.785,15.778L69.785,15.778z"/>
<path fill="#FFFFFF" d="M85.564,16.95l-0.565-1.826c-0.011-0.031-0.03-0.046-0.063-0.046h-4.412c-0.031,0-0.053,0.016-0.062,0.046
	l-0.567,1.826c-0.031,0.083-0.095,0.125-0.188,0.125h-1.272c-0.115,0-0.157-0.058-0.125-0.172l3.438-10.63
	c0.031-0.083,0.094-0.125,0.188-0.125h1.569c0.096,0,0.157,0.041,0.189,0.125l3.471,10.63l0.016,0.062
	c0,0.074-0.048,0.109-0.143,0.109h-1.288C85.656,17.075,85.594,17.033,85.564,16.95L85.564,16.95z M80.86,13.868
	c0.016,0.015,0.035,0.022,0.056,0.022h3.612c0.021,0,0.038-0.007,0.055-0.022c0.019-0.016,0.02-0.034,0.01-0.055L82.769,8.02
	c-0.01-0.022-0.025-0.03-0.048-0.03c-0.021,0-0.035,0.01-0.046,0.03l-1.823,5.793C80.842,13.834,80.845,13.852,80.86,13.868
	L80.86,13.868z"/>
<path fill="#FFFFFF" d="M13.661,0.187v5.785c0,0.048-0.02,0.096-0.055,0.13l-6.884,6.884C6.688,13.02,6.64,13.04,6.591,13.04H0.187
	C0.083,13.04,0,12.957,0,12.854v-2.797c0-0.073,0.042-0.139,0.111-0.17c6.026-2.71,9.639-5.835,10.417-9.735
	C10.546,0.063,10.62,0,10.71,0h2.764C13.579,0,13.661,0.083,13.661,0.187z"/>
<path fill="#FFFFFF" d="M5.464,22.789v-5.785c0-0.048,0.02-0.096,0.056-0.13l6.882-6.884c0.035-0.035,0.083-0.055,0.132-0.055h6.404
	c0.104,0,0.185,0.083,0.185,0.187v2.797c0,0.073-0.042,0.139-0.108,0.17c-6.027,2.709-9.641,5.833-10.419,9.734
	c-0.016,0.089-0.091,0.152-0.181,0.152H5.652C5.548,22.976,5.465,22.892,5.464,22.789L5.464,22.789z"/>
</svg>
