<svg viewBox="0 0 1404 370" fill="#FFFFFF" xmlns="http://www.w3.org/2000/svg">
  <path
    d="M220 3V96.14C220 96.94 219.68 97.7 219.12 98.26L108.26 209.12C107.7 209.68 106.93 210 106.14 210H3C1.34 210 0 208.66 0 207V161.94C0 160.76 0.7 159.69 1.77 159.21C98.83 115.56 157.01 65.25 169.54 2.44C169.82 1.03 171.04 0 172.48 0H217C218.66 0 220 1.34 220 3Z" />
  <path
    d="M88 367V273.86C88 273.06 88.32 272.3 88.88 271.74L199.74 160.88C200.3 160.32 201.07 160 201.86 160H305C306.66 160 308 161.34 308 163V208.06C308 209.24 307.3 210.31 306.23 210.79C209.17 254.43 150.99 304.74 138.47 367.56C138.19 368.97 136.97 370 135.53 370H91.01C89.35 370 88.01 368.66 88.01 367H88Z" />
  <path
    d="M433.71 270.96C424.18 266.94 416.85 261.24 411.71 253.86C406.56 246.49 404 237.86 404 227.97V220.68C404 219.01 404.84 218.17 406.53 218.17H424.99C426.67 218.17 427.52 219.01 427.52 220.68V226.71C427.52 235.26 431.23 242.3 438.65 247.83C446.07 253.36 456.27 256.13 469.25 256.13C480.88 256.13 489.65 253.7 495.55 248.84C501.45 243.98 504.4 237.61 504.4 229.74C504.4 224.55 502.88 220.1 499.85 216.42C496.82 212.74 492.39 209.34 486.57 206.24C480.75 203.14 472.28 199.41 461.15 195.05C448.84 190.36 439.1 186.09 431.94 182.23C424.77 178.38 418.83 173.31 414.11 167.02C409.39 160.74 407.03 152.82 407.03 143.26C407.03 128.85 412.21 117.54 422.58 109.32C432.95 101.11 446.99 97 464.69 97C477.16 97 488.12 99.1 497.57 103.28C507.01 107.47 514.3 113.34 519.45 120.88C524.59 128.42 527.16 137.14 527.16 147.02V152.05C527.16 153.73 526.31 154.56 524.63 154.56H505.66C503.97 154.56 503.13 153.73 503.13 152.05V148.28C503.13 139.57 499.63 132.32 492.63 126.53C485.63 120.75 475.98 117.86 463.67 117.86C453.21 117.86 445.12 120 439.39 124.27C433.66 128.54 430.79 134.7 430.79 142.75C430.79 148.28 432.22 152.81 435.09 156.33C437.95 159.85 442.21 162.99 447.86 165.76C453.51 168.52 462.15 172.09 473.78 176.44C485.75 181.13 495.44 185.45 502.86 189.39C510.28 193.33 516.43 198.53 521.32 204.98C526.21 211.43 528.66 219.44 528.66 228.99C528.66 243.74 523.22 255.43 512.35 264.06C501.47 272.69 486.51 277.01 467.46 277.01C454.47 277.01 443.22 275 433.7 270.98L433.71 270.96Z" />
  <path
    d="M702.66 101.52V117.61C702.66 119.29 701.81 120.12 700.13 120.12H651.57C650.89 120.12 650.56 120.46 650.56 121.12V272.46C650.56 274.14 649.72 274.97 648.03 274.97H628.81C627.12 274.97 626.28 274.13 626.28 272.46V121.12C626.28 120.45 625.94 120.12 625.27 120.12H578.99C577.3 120.12 576.46 119.28 576.46 117.61V101.52C576.46 99.85 577.3 99.01 578.99 99.01H700.13C701.81 99.01 702.66 99.85 702.66 101.52Z" />
  <path
    d="M849.45 273.22L814.05 198.05C813.88 197.55 813.54 197.3 813.04 197.3H776.62C775.94 197.3 775.61 197.64 775.61 198.31V272.47C775.61 274.15 774.76 274.98 773.08 274.98H753.86C752.17 274.98 751.33 274.14 751.33 272.47V101.52C751.33 99.85 752.17 99.01 753.86 99.01H821.89C832.01 99.01 840.9 101.11 848.57 105.29C856.24 109.48 862.18 115.35 866.4 122.89C870.61 130.43 872.72 139.15 872.72 149.03C872.72 160.76 869.64 170.69 863.49 178.82C857.33 186.95 848.78 192.44 837.82 195.29C837.14 195.63 836.97 196.04 837.31 196.55L873.98 271.97C874.14 272.31 874.23 272.72 874.23 273.23C874.23 274.4 873.55 274.99 872.21 274.99H852.23C850.88 274.99 849.95 274.4 849.45 273.23V273.22ZM775.6 120.87V177.18C775.6 177.85 775.94 178.18 776.61 178.18H818.85C827.78 178.18 834.95 175.54 840.35 170.26C845.74 164.98 848.44 157.98 848.44 149.27C848.44 140.56 845.74 133.27 840.35 127.9C834.95 122.54 827.79 119.86 818.85 119.86H776.61C775.93 119.86 775.6 120.2 775.6 120.87Z" />
  <path
    d="M973.66 272.21V201.57C973.66 200.9 973.57 200.48 973.41 200.31L920.81 102.01C920.64 101.67 920.56 101.26 920.56 100.75C920.56 99.58 921.23 98.99 922.58 98.99H943.32C944.84 98.99 945.85 99.58 946.35 100.75L985.05 174.41C985.21 174.75 985.47 174.91 985.81 174.91C986.15 174.91 986.4 174.74 986.57 174.41L1025.27 100.75C1025.78 99.58 1026.79 98.99 1028.31 98.99H1049.3C1050.14 98.99 1050.77 99.28 1051.2 99.87C1051.62 100.46 1051.58 101.17 1051.07 102.01L998.21 200.31C998.04 200.48 997.96 200.9 997.96 201.57V272.21C997.96 273.89 997.12 274.72 995.43 274.72H976.21C974.52 274.72 973.68 273.88 973.68 272.21H973.66Z" />
  <path
    d="M1098.54 101.52C1098.54 99.85 1099.38 99.01 1101.07 99.01H1162.27C1179.81 99.01 1193.8 103.58 1204.25 112.71C1214.7 121.85 1219.93 134.04 1219.93 149.29V224.71C1219.93 239.96 1214.7 252.16 1204.25 261.29C1193.79 270.43 1179.8 274.99 1162.27 274.99H1101.07C1099.38 274.99 1098.54 274.15 1098.54 272.48V101.52ZM1123.83 254.11H1163.29C1173.07 254.11 1180.87 251.14 1186.68 245.19C1192.5 239.24 1195.49 231.24 1195.66 221.18V152.8C1195.66 142.74 1192.75 134.74 1186.94 128.79C1181.12 122.84 1173.24 119.87 1163.29 119.87H1123.83C1123.15 119.87 1122.82 120.21 1122.82 120.88V253.11C1122.82 253.78 1123.16 254.12 1123.83 254.12V254.11Z" />
  <path
    d="M1377.94 272.97L1368.84 243.56C1368.67 243.06 1368.33 242.81 1367.83 242.81H1296.76C1296.26 242.81 1295.92 243.06 1295.75 243.56L1286.65 272.97C1286.14 274.31 1285.13 274.98 1283.61 274.98H1263.13C1261.27 274.98 1260.6 274.06 1261.1 272.21L1316.49 101.01C1316.99 99.67 1318 99 1319.52 99H1344.81C1346.33 99 1347.34 99.67 1347.84 101.01L1403.73 272.21L1403.98 273.22C1403.98 274.39 1403.22 274.98 1401.7 274.98H1380.96C1379.44 274.98 1378.43 274.31 1377.92 272.97H1377.94ZM1302.19 223.32C1302.45 223.57 1302.74 223.7 1303.08 223.7H1361.25C1361.59 223.7 1361.88 223.58 1362.14 223.32C1362.4 223.06 1362.43 222.78 1362.27 222.44L1332.93 129.17C1332.76 128.83 1332.51 128.67 1332.17 128.67C1331.83 128.67 1331.58 128.84 1331.41 129.17L1302.07 222.44C1301.9 222.78 1301.94 223.07 1302.2 223.32H1302.19Z" />
</svg>
